<svg width="504" height="99" viewBox="0 0 504 99" fill="none" xmlns="http://www.w3.org/2000/svg">
<g clip-path="url(#clip0_1002_2)">
<path d="M71.4538 100L46.6412 62.2684H46.026L21.2133 100H0.296875L34.7475 48.5291L2.55257 -0.27594H23.6741L46.026 33.5595H46.6412L69.1981 -0.27594H90.1146L58.1247 48.5291L92.5753 100H71.4538Z" fill="black"/>
<path d="M122.677 77.238L112.629 100H94.5831L138.877 -0.27594H156.922L201.011 100H182.965L172.917 77.238H122.677ZM166.15 61.4481L147.9 20.2304L129.649 61.4481H166.15Z" fill="black"/>
<path d="M214.976 -0.27594H231.996V100H214.976V-0.27594Z" fill="black"/>
<path d="M278.62 35.6113C276.46 35.6113 274.565 35.0972 272.934 34.0692C271.314 33.0411 270.047 31.6029 269.134 29.7544C268.23 27.906 267.778 25.7461 267.778 23.2746C267.778 20.7823 268.23 18.6068 269.134 16.7479C270.047 14.8891 271.314 13.4457 272.934 12.4176C274.565 11.3896 276.46 10.8755 278.62 10.8755C280.78 10.8755 282.67 11.3896 284.29 12.4176C285.92 13.4457 287.187 14.8891 288.09 16.7479C289.004 18.6068 289.461 20.7823 289.461 23.2746C289.461 25.7461 289.004 27.906 288.09 29.7544C287.187 31.6029 285.92 33.0411 284.29 34.0692C282.67 35.0972 280.78 35.6113 278.62 35.6113ZM278.62 32.309C280.26 32.309 281.61 31.8884 282.67 31.0473C283.729 30.2062 284.513 29.1002 285.022 27.7295C285.531 26.3587 285.785 24.8738 285.785 23.2746C285.785 21.6754 285.531 20.1852 285.022 18.8041C284.513 17.4229 283.729 16.3066 282.67 15.4551C281.61 14.6036 280.26 14.1778 278.62 14.1778C276.979 14.1778 275.629 14.6036 274.57 15.4551C273.511 16.3066 272.727 17.4229 272.218 18.8041C271.709 20.1852 271.454 21.6754 271.454 23.2746C271.454 24.8738 271.709 26.3587 272.218 27.7295C272.727 29.1002 273.511 30.2062 274.57 31.0473C275.629 31.8884 276.979 32.309 278.62 32.309Z" fill="black"/>
<path d="M298.749 20.72V35.1128H295.073V11.1871H298.624V14.9255H298.936C299.496 13.7105 300.348 12.7344 301.49 11.9971C302.632 11.2494 304.107 10.8755 305.914 10.8755C307.534 10.8755 308.951 11.2078 310.166 11.8725C311.381 12.5267 312.326 13.5236 313.001 14.8632C313.676 16.1924 314.014 17.8747 314.014 19.91V35.1128H310.338V20.1592C310.338 18.2796 309.85 16.8154 308.873 15.7666C307.897 14.7074 306.558 14.1778 304.855 14.1778C303.681 14.1778 302.632 14.4322 301.708 14.9411C300.794 15.4499 300.073 16.1924 299.543 17.1685C299.013 18.1447 298.749 19.3285 298.749 20.72Z" fill="black"/>
<path d="M331.822 6.6387V3.21183H355.747V6.6387H345.716V35.1128H341.853V6.6387H331.822Z" fill="black"/>
<path d="M358.727 35.1128V11.1871H362.278V14.8009H362.527C362.963 13.617 363.753 12.6565 364.895 11.9192C366.037 11.1819 367.325 10.8132 368.758 10.8132C369.028 10.8132 369.365 10.8184 369.77 10.8288C370.175 10.8392 370.482 10.8548 370.689 10.8755V14.6139C370.565 14.5828 370.279 14.5361 369.833 14.4738C369.397 14.4011 368.934 14.3647 368.446 14.3647C367.283 14.3647 366.245 14.6088 365.331 15.0968C364.428 15.5745 363.711 16.2391 363.181 17.0906C362.662 17.9318 362.403 18.8923 362.403 19.9723V35.1128H358.727Z" fill="black"/>
<path d="M382.088 35.6736C380.571 35.6736 379.196 35.388 377.96 34.8169C376.724 34.2353 375.743 33.3994 375.016 32.309C374.289 31.2083 373.925 29.8791 373.925 28.3214C373.925 26.9507 374.195 25.8395 374.735 24.988C375.275 24.1261 375.997 23.4511 376.901 22.963C377.804 22.475 378.801 22.1115 379.891 21.8727C380.992 21.6234 382.098 21.4261 383.209 21.2808C384.663 21.0938 385.842 20.9536 386.745 20.8602C387.659 20.7563 388.323 20.585 388.739 20.3461C389.165 20.1073 389.377 19.6919 389.377 19.1V18.9754C389.377 17.4385 388.957 16.2443 388.116 15.3928C387.285 14.5413 386.023 14.1155 384.331 14.1155C382.576 14.1155 381.2 14.4997 380.203 15.2682C379.206 16.0366 378.505 16.857 378.1 17.7293L374.611 16.4831C375.234 15.0293 376.065 13.8974 377.103 13.0874C378.152 12.2671 379.294 11.6959 380.53 11.374C381.776 11.0417 383.001 10.8755 384.206 10.8755C384.974 10.8755 385.857 10.969 386.854 11.1559C387.861 11.3325 388.832 11.7011 389.767 12.2619C390.712 12.8226 391.496 13.669 392.119 14.8009C392.742 15.9328 393.054 17.4489 393.054 19.3492V35.1128H389.377V31.8729H389.191C388.941 32.3921 388.526 32.9477 387.944 33.5396C387.363 34.1315 386.589 34.6351 385.623 35.0505C384.658 35.4659 383.479 35.6736 382.088 35.6736ZM382.648 32.3713C384.102 32.3713 385.328 32.0858 386.324 31.5146C387.332 30.9435 388.09 30.2062 388.599 29.3027C389.118 28.3993 389.377 27.4491 389.377 26.4522V23.0876C389.222 23.2746 388.879 23.4459 388.349 23.6017C387.83 23.7471 387.228 23.8769 386.543 23.9911C385.868 24.0949 385.208 24.1884 384.564 24.2715C383.931 24.3442 383.417 24.4065 383.022 24.4584C382.067 24.583 381.174 24.7855 380.343 25.0659C379.523 25.3359 378.858 25.7461 378.349 26.2964C377.851 26.8364 377.602 27.5737 377.602 28.5083C377.602 29.7856 378.074 30.7514 379.019 31.4056C379.974 32.0494 381.184 32.3713 382.648 32.3713Z" fill="black"/>
<path d="M410.418 11.1871V14.3024H397.52V11.1871H410.418ZM401.383 35.1128V7.88483C401.383 6.51408 401.705 5.3718 402.349 4.45797C402.993 3.54414 403.829 2.85876 404.857 2.40185C405.885 1.94493 406.97 1.71647 408.112 1.71647C409.016 1.71647 409.753 1.78917 410.324 1.93455C410.895 2.07993 411.321 2.21493 411.601 2.33954L410.542 5.51718C410.355 5.45487 410.096 5.37699 409.763 5.28353C409.441 5.19007 409.016 5.14334 408.486 5.14334C407.271 5.14334 406.394 5.44968 405.854 6.06236C405.324 6.67504 405.059 7.5733 405.059 8.75712V35.1128H401.383Z" fill="black"/>
<path d="M426.224 11.1871V14.3024H413.327V11.1871H426.224ZM417.19 35.1128V7.88483C417.19 6.51408 417.511 5.3718 418.155 4.45797C418.799 3.54414 419.635 2.85876 420.663 2.40185C421.691 1.94493 422.776 1.71647 423.919 1.71647C424.822 1.71647 425.559 1.78917 426.131 1.93455C426.702 2.07993 427.127 2.21493 427.408 2.33954L426.349 5.51718C426.162 5.45487 425.902 5.37699 425.57 5.28353C425.248 5.19007 424.822 5.14334 424.293 5.14334C423.078 5.14334 422.2 5.44968 421.66 6.06236C421.13 6.67504 420.866 7.5733 420.866 8.75712V35.1128H417.19Z" fill="black"/>
<path d="M431.376 35.1128V11.1871H435.052V35.1128H431.376ZM433.245 7.19946C432.529 7.19946 431.911 6.95542 431.392 6.46735C430.883 5.97929 430.628 5.39257 430.628 4.70719C430.628 4.02182 430.883 3.4351 431.392 2.94703C431.911 2.45896 432.529 2.21493 433.245 2.21493C433.962 2.21493 434.574 2.45896 435.083 2.94703C435.602 3.4351 435.862 4.02182 435.862 4.70719C435.862 5.39257 435.602 5.97929 435.083 6.46735C434.574 6.95542 433.962 7.19946 433.245 7.19946Z" fill="black"/>
<path d="M451.505 35.6113C449.262 35.6113 447.33 35.0817 445.71 34.0224C444.09 32.9632 442.844 31.5042 441.972 29.6454C441.1 27.7866 440.664 25.663 440.664 23.2746C440.664 20.8446 441.11 18.7002 442.003 16.8414C442.907 14.9722 444.163 13.5132 445.773 12.4644C447.393 11.4052 449.283 10.8755 451.443 10.8755C453.125 10.8755 454.641 11.1871 455.991 11.8101C457.341 12.4332 458.447 13.3055 459.309 14.427C460.171 15.5485 460.706 16.857 460.913 18.3523H457.237C456.957 17.262 456.334 16.2962 455.368 15.4551C454.413 14.6036 453.125 14.1778 451.505 14.1778C450.072 14.1778 448.815 14.5516 447.735 15.2993C446.666 16.0366 445.83 17.0802 445.228 18.4302C444.636 19.7698 444.34 21.3431 444.34 23.1499C444.34 24.9984 444.63 26.608 445.212 27.9787C445.804 29.3495 446.635 30.4139 447.704 31.1719C448.784 31.93 450.051 32.309 451.505 32.309C452.46 32.309 453.327 32.1429 454.106 31.8106C454.885 31.4783 455.544 31.0006 456.084 30.3775C456.624 29.7544 457.009 29.0068 457.237 28.1345H460.913C460.706 29.5468 460.192 30.8189 459.371 31.9508C458.561 33.0723 457.486 33.9653 456.147 34.6299C454.818 35.2842 453.27 35.6113 451.505 35.6113Z" fill="black"/>
<path d="M269.398 88.082V56.181H288.526V59.6078H273.261V70.3869H287.093V73.8137H273.261V88.082H269.398Z" fill="black"/>
<path d="M302.608 88.5804C300.448 88.5804 298.553 88.0664 296.922 87.0383C295.302 86.0103 294.035 84.572 293.122 82.7236C292.218 80.8752 291.766 78.7152 291.766 76.2437C291.766 73.7514 292.218 71.5759 293.122 69.7171C294.035 67.8583 295.302 66.4148 296.922 65.3868C298.553 64.3587 300.448 63.8447 302.608 63.8447C304.768 63.8447 306.658 64.3587 308.278 65.3868C309.908 66.4148 311.175 67.8583 312.078 69.7171C312.992 71.5759 313.449 73.7514 313.449 76.2437C313.449 78.7152 312.992 80.8752 312.078 82.7236C311.175 84.572 309.908 86.0103 308.278 87.0383C306.658 88.0664 304.768 88.5804 302.608 88.5804ZM302.608 85.2782C304.248 85.2782 305.598 84.8576 306.658 84.0165C307.717 83.1753 308.501 82.0694 309.01 80.6986C309.519 79.3279 309.773 77.8429 309.773 76.2437C309.773 74.6445 309.519 73.1543 309.01 71.7732C308.501 70.3921 307.717 69.2757 306.658 68.4242C305.598 67.5727 304.248 67.1469 302.608 67.1469C300.967 67.1469 299.617 67.5727 298.558 68.4242C297.499 69.2757 296.715 70.3921 296.206 71.7732C295.697 73.1543 295.442 74.6445 295.442 76.2437C295.442 77.8429 295.697 79.3279 296.206 80.6986C296.715 82.0694 297.499 83.1753 298.558 84.0165C299.617 84.8576 300.967 85.2782 302.608 85.2782Z" fill="black"/>
<path d="M319.061 88.082V64.1562H322.612V67.77H322.861C323.297 66.5862 324.087 65.6256 325.229 64.8883C326.371 64.151 327.659 63.7824 329.092 63.7824C329.362 63.7824 329.699 63.7876 330.104 63.798C330.509 63.8083 330.816 63.8239 331.023 63.8447V67.5831C330.899 67.5519 330.613 67.5052 330.167 67.4429C329.731 67.3702 329.268 67.3339 328.78 67.3339C327.617 67.3339 326.579 67.5779 325.665 68.066C324.762 68.5436 324.045 69.2082 323.515 70.0598C322.996 70.9009 322.737 71.8615 322.737 72.9414V88.082H319.061Z" fill="black"/>
<path d="M344.684 88.5804C342.379 88.5804 340.39 88.0716 338.718 87.0539C337.057 86.0258 335.774 84.5928 334.871 82.7547C333.978 80.9063 333.531 78.7567 333.531 76.306C333.531 73.8553 333.978 71.6953 334.871 69.8261C335.774 67.9465 337.031 66.4823 338.64 65.4335C340.26 64.3743 342.15 63.8447 344.31 63.8447C345.556 63.8447 346.787 64.0524 348.002 64.4678C349.217 64.8831 350.323 65.5581 351.32 66.4927C352.317 67.4169 353.111 68.6423 353.703 70.1688C354.295 71.6953 354.591 73.5749 354.591 75.8076V77.3652H336.148V74.1876H350.853C350.853 72.8376 350.583 71.633 350.043 70.5738C349.513 69.5146 348.755 68.6786 347.768 68.066C346.792 67.4533 345.64 67.1469 344.31 67.1469C342.846 67.1469 341.579 67.5104 340.51 68.2373C339.45 68.9538 338.635 69.8884 338.064 71.0411C337.493 72.1938 337.207 73.4295 337.207 74.7483V76.8668C337.207 78.6737 337.519 80.2054 338.142 81.4619C338.775 82.708 339.653 83.6582 340.774 84.3124C341.896 84.9562 343.199 85.2782 344.684 85.2782C345.65 85.2782 346.522 85.1432 347.301 84.8732C348.09 84.5928 348.77 84.1774 349.342 83.627C349.913 83.0663 350.354 82.3705 350.666 81.5398L354.217 82.5367C353.843 83.7413 353.215 84.8005 352.332 85.7143C351.45 86.6177 350.359 87.3239 349.061 87.8327C347.763 88.3312 346.304 88.5804 344.684 88.5804Z" fill="black"/>
<path d="M369.903 88.5804C367.66 88.5804 365.728 88.0508 364.108 86.9916C362.488 85.9324 361.242 84.4734 360.37 82.6146C359.498 80.7557 359.061 78.6321 359.061 76.2437C359.061 73.8137 359.508 71.6694 360.401 69.8105C361.304 67.9413 362.561 66.4823 364.171 65.4335C365.791 64.3743 367.68 63.8447 369.84 63.8447C371.523 63.8447 373.039 64.1562 374.389 64.7793C375.739 65.4024 376.845 66.2746 377.707 67.3962C378.569 68.5177 379.103 69.8261 379.311 71.3215H375.635C375.355 70.2311 374.732 69.2654 373.766 68.4242C372.81 67.5727 371.523 67.1469 369.903 67.1469C368.47 67.1469 367.213 67.5208 366.133 68.2685C365.064 69.0057 364.228 70.0494 363.625 71.3994C363.033 72.739 362.738 74.3122 362.738 76.1191C362.738 77.9675 363.028 79.5771 363.61 80.9478C364.202 82.3186 365.032 83.383 366.102 84.1411C367.182 84.8991 368.449 85.2782 369.903 85.2782C370.858 85.2782 371.725 85.112 372.504 84.7797C373.283 84.4474 373.942 83.9697 374.482 83.3467C375.022 82.7236 375.407 81.9759 375.635 81.1036H379.311C379.103 82.5159 378.589 83.788 377.769 84.9199C376.959 86.0414 375.884 86.9345 374.545 87.5991C373.215 88.2533 371.668 88.5804 369.903 88.5804Z" fill="black"/>
<path d="M391.726 88.6427C390.209 88.6427 388.834 88.3571 387.598 87.786C386.362 87.2045 385.381 86.3685 384.654 85.2782C383.927 84.1774 383.563 82.8482 383.563 81.2905C383.563 79.9198 383.833 78.8087 384.373 77.9571C384.913 77.0952 385.635 76.4202 386.539 75.9322C387.442 75.4441 388.439 75.0806 389.529 74.8418C390.63 74.5926 391.736 74.3953 392.847 74.2499C394.301 74.063 395.48 73.9228 396.383 73.8293C397.297 73.7255 397.961 73.5541 398.377 73.3153C398.803 73.0765 399.016 72.6611 399.016 72.0692V71.9445C399.016 70.4076 398.595 69.2134 397.754 68.3619C396.923 67.5104 395.661 67.0846 393.969 67.0846C392.214 67.0846 390.838 67.4689 389.841 68.2373C388.844 69.0058 388.143 69.8261 387.738 70.6984L384.249 69.4523C384.872 67.9985 385.703 66.8666 386.741 66.0566C387.79 65.2362 388.932 64.6651 390.168 64.3431C391.414 64.0108 392.639 63.8447 393.844 63.8447C394.613 63.8447 395.495 63.9381 396.492 64.1251C397.499 64.3016 398.47 64.6703 399.405 65.231C400.35 65.7918 401.134 66.6381 401.757 67.77C402.38 68.9019 402.692 70.418 402.692 72.3184V88.082H399.016V84.842H398.829C398.579 85.3612 398.164 85.9168 397.582 86.5087C397.001 87.1006 396.227 87.6043 395.262 88.0196C394.296 88.435 393.117 88.6427 391.726 88.6427ZM392.286 85.3405C393.74 85.3405 394.966 85.0549 395.962 84.4837C396.97 83.9126 397.728 83.1753 398.237 82.2719C398.756 81.3684 399.016 80.4182 399.016 79.4213V76.0568C398.86 76.2437 398.517 76.415 397.987 76.5708C397.468 76.7162 396.866 76.846 396.181 76.9602C395.506 77.0641 394.846 77.1575 394.202 77.2406C393.569 77.3133 393.055 77.3756 392.66 77.4275C391.705 77.5521 390.812 77.7546 389.981 78.035C389.161 78.305 388.496 78.7152 387.987 79.2656C387.489 79.8056 387.24 80.5429 387.24 81.4775C387.24 82.7547 387.712 83.7205 388.657 84.3747C389.612 85.0186 390.822 85.3405 392.286 85.3405Z" fill="black"/>
<path d="M426.349 69.5146L423.046 70.4492C422.839 69.8988 422.532 69.364 422.127 68.8448C421.733 68.3152 421.193 67.879 420.507 67.5364C419.822 67.1937 418.945 67.0223 417.875 67.0223C416.411 67.0223 415.191 67.3598 414.214 68.0348C413.249 68.6994 412.766 69.5457 412.766 70.5738C412.766 71.4876 413.098 72.2093 413.763 72.739C414.427 73.2686 415.466 73.7099 416.878 74.063L420.43 74.9353C422.569 75.4545 424.163 76.2489 425.212 77.3185C426.26 78.3777 426.785 79.7433 426.785 81.4152C426.785 82.7859 426.39 84.0113 425.601 85.0912C424.822 86.1712 423.732 87.0227 422.33 87.6458C420.928 88.2689 419.298 88.5804 417.439 88.5804C414.998 88.5804 412.979 88.0508 411.379 86.9916C409.78 85.9324 408.768 84.3851 408.342 82.3497L411.831 81.4775C412.164 82.7651 412.792 83.7309 413.716 84.3747C414.651 85.0186 415.871 85.3405 417.376 85.3405C419.09 85.3405 420.45 84.977 421.458 84.2501C422.475 83.5128 422.984 82.6301 422.984 81.6021C422.984 80.7713 422.693 80.0756 422.112 79.5148C421.53 78.9437 420.637 78.5179 419.433 78.2375L415.445 77.3029C413.254 76.7837 411.644 75.9789 410.616 74.8885C409.599 73.7878 409.09 72.4118 409.09 70.7607C409.09 69.4107 409.469 68.2165 410.227 67.1781C410.995 66.1396 412.039 65.3245 413.358 64.7326C414.687 64.1406 416.193 63.8447 417.875 63.8447C420.243 63.8447 422.101 64.3639 423.451 65.4024C424.812 66.4408 425.778 67.8115 426.349 69.5146Z" fill="black"/>
<path d="M442.724 64.1562V67.2716H430.325V64.1562H442.724ZM433.938 58.424H437.614V81.2282C437.614 82.2667 437.765 83.0455 438.066 83.5647C438.378 84.0736 438.772 84.4163 439.25 84.5928C439.738 84.7589 440.252 84.842 440.792 84.842C441.197 84.842 441.529 84.8212 441.789 84.7797C442.049 84.7278 442.256 84.6862 442.412 84.6551L443.16 87.9573C442.911 88.0508 442.563 88.1443 442.116 88.2377C441.67 88.3416 441.104 88.3935 440.418 88.3935C439.38 88.3935 438.362 88.1702 437.365 87.7237C436.379 87.2772 435.558 86.597 434.904 85.6832C434.26 84.7693 433.938 83.6167 433.938 82.2251V58.424Z" fill="black"/>
<path d="M448.253 88.082V64.1562H451.929V88.082H448.253ZM450.122 60.1686C449.406 60.1686 448.788 59.9246 448.269 59.4365C447.76 58.9484 447.506 58.3617 447.506 57.6763C447.506 56.991 447.76 56.4042 448.269 55.9162C448.788 55.4281 449.406 55.1841 450.122 55.1841C450.839 55.1841 451.452 55.4281 451.961 55.9162C452.48 56.4042 452.739 56.991 452.739 57.6763C452.739 58.3617 452.48 58.9484 451.961 59.4365C451.452 59.9246 450.839 60.1686 450.122 60.1686Z" fill="black"/>
<path d="M462.338 73.6891V88.082H458.662V64.1562H462.214V67.8946H462.525C463.086 66.6796 463.938 65.7035 465.08 64.9662C466.222 64.2185 467.697 63.8447 469.504 63.8447C471.124 63.8447 472.541 64.177 473.756 64.8416C474.971 65.4958 475.916 66.4927 476.591 67.8323C477.266 69.1615 477.604 70.8438 477.604 72.8791V88.082H473.928V73.1284C473.928 71.2488 473.439 69.7846 472.463 68.7358C471.487 67.6765 470.148 67.1469 468.445 67.1469C467.271 67.1469 466.222 67.4014 465.298 67.9102C464.384 68.419 463.662 69.1615 463.133 70.1377C462.603 71.1138 462.338 72.2976 462.338 73.6891Z" fill="black"/>
<path d="M493.979 97.5526C492.203 97.5526 490.676 97.3241 489.399 96.8672C488.122 96.4207 487.057 95.8287 486.206 95.0914C485.365 94.3645 484.695 93.5857 484.196 92.755L487.125 90.6988C487.457 91.135 487.878 91.6334 488.387 92.1942C488.895 92.7653 489.591 93.2586 490.474 93.674C491.367 94.0997 492.535 94.3126 493.979 94.3126C495.91 94.3126 497.504 93.8453 498.761 92.9107C500.017 91.9761 500.645 90.5119 500.645 88.5181V83.6582H500.334C500.064 84.0943 499.68 84.6343 499.181 85.2782C498.693 85.9116 497.987 86.4776 497.063 86.976C496.149 87.4641 494.913 87.7081 493.356 87.7081C491.424 87.7081 489.69 87.2512 488.153 86.3374C486.626 85.4235 485.417 84.0943 484.524 82.3497C483.641 80.6052 483.2 78.4867 483.2 75.9945C483.2 73.5437 483.63 71.4097 484.492 69.5925C485.354 67.7648 486.554 66.3525 488.091 65.3556C489.627 64.3483 491.403 63.8447 493.418 63.8447C494.975 63.8447 496.211 64.1043 497.125 64.6235C498.049 65.1324 498.755 65.7139 499.243 66.3681C499.742 67.0119 500.126 67.5415 500.396 67.9569H500.77V64.1562H504.321V88.7673C504.321 90.8234 503.854 92.4953 502.92 93.783C501.995 95.0811 500.749 96.0312 499.181 96.6335C497.624 97.2462 495.889 97.5526 493.979 97.5526ZM493.854 84.4059C495.329 84.4059 496.575 84.0684 497.592 83.3934C498.61 82.7184 499.384 81.7475 499.913 80.4806C500.443 79.2137 500.708 77.6975 500.708 75.9322C500.708 74.2084 500.448 72.687 499.929 71.3682C499.41 70.0494 498.641 69.0161 497.623 68.2685C496.606 67.5208 495.349 67.1469 493.854 67.1469C492.296 67.1469 490.998 67.5415 489.96 68.3308C488.932 69.12 488.158 70.1792 487.639 71.5084C487.13 72.8376 486.876 74.3122 486.876 75.9322C486.876 77.5937 487.135 79.0631 487.654 80.3404C488.184 81.6073 488.963 82.6042 489.991 83.3311C491.029 84.0476 492.317 84.4059 493.854 84.4059Z" fill="black"/>
</g>
<defs>
<clipPath id="clip0_1002_2">
<rect width="504" height="99" fill="white"/>
</clipPath>
</defs>
</svg>
